/* XPM */
/* Based on https://commons.wikimedia.org/w/index.php?title=File:Airplane_silhouette.svg&oldid=309927075 */
static char *Airplane_silhouette32[] = {
/* columns rows colors chars-per-pixel */
"32 32 2 1 ",
"  c None",
". c black",
/* pixels */
"                                ",
"                            ... ",
"                           .... ",
"         ..              .....  ",
"  ....  ..     ..       .....   ",
" ............ ...      .....    ",
"  ..................  ......    ",
"     ......................     ",
"        ..................      ",
"          ...............       ",
"            .............       ",
"              ...........       ",
"               ..........       ",
"               ..........       ",
"               ..........  .    ",
"              ..............    ",
"             .....  .......     ",
"            ....     .....      ",
"           ....      .....      ",
"          ....        ....      ",
"  ...    ....         ....      ",
" ...........          .......   ",
"  .........            .....    ",
"    .......            ....     ",
"      .....            ....     ",
"      .....             ...     ",
"       ....             ...     ",
"        ...             ...     ",
"         ..              ..     ",
"         ..              ..     ",
"                                ",
"                                "
};
